<svg width="545" height="398" viewBox="0 0 545 398" fill="none" xmlns="http://www.w3.org/2000/svg">
<path d="M542 397.233L179.247 397.233L179.247 195.56L542 195.56L542 397.233Z" fill="#00FF00"/>
<path d="M98.4466 196.737L5.61538 107.51L105.925 3.00005L198.756 92.2279L98.4466 196.737Z" fill="#00FF00"/>
<path d="M542 194.054L542 395.317L179.985 395.317L96.8558 194.054L3.00003 105.498L107.582 3.52528L542 194.054Z" fill="#00FF00"/>
<path d="M180 196H361H542V395H180V196Z" fill="black"/>
<path d="M103.904 0.624023L151.851 46.6768L199.798 92.7296L99.2787 197.383L3.38518 105.277L103.904 0.624023Z" fill="black"/>
<path fill-rule="evenodd" clip-rule="evenodd" d="M545 398L178.857 398L96.9308 198.382L3.54798e-05 105.681L106.071 3.83724e-05L545 193.911L545 398ZM102.334 197.433L177.923 381.61L177.243 197.305L127.067 171.653L102.334 197.433ZM130.944 167.612L180.56 192.977L309.344 192.977L199.635 96.011L130.944 167.612ZM201.111 90.2976L201.179 90.22L317.44 192.977L529.614 192.977L119.457 11.7772L201.111 90.2976ZM106.697 6.94453L195.618 92.4541L125.96 165.063L8.34513 104.935L106.697 6.94453ZM18.9363 116.372L122.082 169.105L99.1112 193.049L18.9363 116.372ZM539.642 198.342L539.642 389.372L323.509 198.342L539.642 198.342ZM315.413 198.342L182.605 198.342L183.322 392.636L535.238 392.636L315.413 198.342Z" fill="white"/>
</svg>
